<svg xmlns="http://www.w3.org/2000/svg" width="118.183" height="118.186" viewBox="0 0 118.183 118.186">
  <path id="Icon_awesome-baby-carriage" data-name="Icon awesome-baby-carriage" d="M33.424,3.926a8.668,8.668,0,0,0-12.465-2.17C8.148,11.982,0,27.24,0,44.321H59.091Zm81.066,18.235H103.41A14.786,14.786,0,0,0,88.637,36.934V51.707H0c0,11.68,5.309,22.251,13.919,30.169A18.442,18.442,0,1,0,36.932,99.719,18.653,18.653,0,0,0,35.916,93.9a59.754,59.754,0,0,0,31.577,0,18.008,18.008,0,0,0-1.016,5.817A18.466,18.466,0,1,0,89.491,81.876c8.61-7.917,13.919-18.489,13.919-30.169V36.934h11.08a3.7,3.7,0,0,0,3.693-3.693V25.855A3.7,3.7,0,0,0,114.489,22.162ZM18.466,107.1a7.386,7.386,0,1,1,7.386-7.386A7.408,7.408,0,0,1,18.466,107.1ZM92.33,99.719a7.386,7.386,0,1,1-7.386-7.386A7.408,7.408,0,0,1,92.33,99.719Z" transform="translate(0 0.001)" fill="#ee8bdd"/>
</svg>
