<svg xmlns="http://www.w3.org/2000/svg" width="118.183" height="118.186" viewBox="0 0 118.183 118.186">
  <path id="Icon_awesome-candy-cane" data-name="Icon awesome-candy-cane" d="M114.835,21.237A36.955,36.955,0,0,0,62.459,5.217L56.111,9a7.375,7.375,0,0,0-2.539,10.134l7.571,12.673a7.4,7.4,0,0,0,6.348,3.6,7.548,7.548,0,0,0,3.786-1.039l6.348-3.786a7.262,7.262,0,0,1,3.786-1.039,7.4,7.4,0,0,1,3.809,13.735L3.6,91.779a7.375,7.375,0,0,0-2.539,10.134l7.571,12.673a7.4,7.4,0,0,0,6.348,3.6,7.548,7.548,0,0,0,3.786-1.039L98.931,69.481C115.482,59.578,123.076,38.665,114.835,21.237Zm-41.019,3-.577.346-4.732-14.2A29.039,29.039,0,0,1,75.5,8.033L80.256,22.3a14.736,14.736,0,0,0-6.44,1.939ZM33.674,99.674,19.709,90.787l7.11-4.224,13.965,8.887Zm24.815-14.75L44.523,76.036l7.11-4.224L65.6,80.7Zm25.6-15.212L70.123,60.824l7.11-4.224L91.2,65.487ZM88.8,24.168,99.416,13.55a29.368,29.368,0,0,1,5.217,5.217L94.083,29.316A15.241,15.241,0,0,0,88.8,24.168Zm18.951,24.884-13.735-4.57a13.534,13.534,0,0,0,2.124-7.087l13.942,4.64A30.932,30.932,0,0,1,107.749,49.052Z" transform="translate(-0.002 0)" fill="#ee8bdd"/>
</svg>
