<svg xmlns="http://www.w3.org/2000/svg" width="118.186" height="118.187" viewBox="0 0 118.186 118.187">
  <path id="Icon_awesome-cookie-bite" data-name="Icon awesome-cookie-bite" d="M117.844,59.05A29.529,29.529,0,0,1,88.651,29.536,29.528,29.528,0,0,1,59.137.348a30.462,30.462,0,0,0-18.4,2.959l-15.957,8.13a30.521,30.521,0,0,0-13.34,13.344l-8.1,15.9A30.618,30.618,0,0,0,.377,59.366L3.165,76.972a30.59,30.59,0,0,0,8.578,16.841l12.643,12.64a30.478,30.478,0,0,0,16.784,8.555l17.707,2.8a30.45,30.45,0,0,0,18.589-2.945l15.957-8.127A30.533,30.533,0,0,0,106.762,93.4l8.1-15.9A30.6,30.6,0,0,0,117.844,59.05ZM40.626,84.944a7.387,7.387,0,1,1,7.387-7.387A7.387,7.387,0,0,1,40.626,84.944Zm7.387-36.933A7.387,7.387,0,1,1,55.4,40.625,7.387,7.387,0,0,1,48.013,48.012ZM84.946,77.558a7.387,7.387,0,1,1,7.387-7.387A7.387,7.387,0,0,1,84.946,77.558Z" transform="translate(0 0)" fill="#ee8bdd"/>
</svg>
