<svg xmlns="http://www.w3.org/2000/svg" width="122" height="102" viewBox="0 0 122 102">
  <g id="Grupo_49" data-name="Grupo 49" transform="translate(-140 454)">
    <text id="LIAN" transform="translate(152 -420)" fill="#f8b3ec" font-size="40" font-family="MAXWELLBOLD, MAXWELL" letter-spacing="0.25em"><tspan x="0" y="0">LIAN</tspan></text>
    <text id="DETALLITOS" transform="translate(160 -394)" fill="#ffc5f5" font-size="15" font-family="Dubai-Regular, Dubai"><tspan x="0" y="0">DETALLITOS</tspan></text>
    <path id="Sustracción_1" data-name="Sustracción 1" d="M61,127a61.744,61.744,0,0,1-23.744-4.693,60.887,60.887,0,0,1-19.39-12.8A59.467,59.467,0,0,1,4.794,90.527,58.268,58.268,0,0,1,0,67.282,59.185,59.185,0,0,1,.655,58.5C5.026,87.538,30.968,109.436,61,109.436s55.973-21.9,60.344-50.936A59.19,59.19,0,0,1,122,67.282a58.27,58.27,0,0,1-4.794,23.245,59.466,59.466,0,0,1-13.073,18.982,60.885,60.885,0,0,1-19.389,12.8A61.742,61.742,0,0,1,61,127Z" transform="translate(140 -479)" fill="#b8ecff"/>
  </g>
</svg>
