<svg xmlns="http://www.w3.org/2000/svg" width="54.237" height="54.237" viewBox="0 0 54.237 54.237">
  <path id="Icon_awesome-whatsapp" data-name="Icon awesome-whatsapp" d="M46.113,10.131a26.885,26.885,0,0,0-42.3,32.433L0,56.487l14.249-3.741a26.794,26.794,0,0,0,12.845,3.269h.012A27.135,27.135,0,0,0,54.237,29.138a26.982,26.982,0,0,0-8.123-19.007ZM27.106,51.487a22.3,22.3,0,0,1-11.38-3.111l-.811-.484-8.45,2.215,2.252-8.244-.533-.847A22.382,22.382,0,1,1,49.7,29.138,22.588,22.588,0,0,1,27.106,51.487ZM39.358,34.756c-.666-.339-3.971-1.961-4.588-2.179s-1.065-.339-1.513.339-1.731,2.179-2.131,2.639-.787.508-1.453.169c-3.947-1.973-6.537-3.523-9.14-7.99-.69-1.186.69-1.1,1.973-3.668a1.245,1.245,0,0,0-.061-1.174c-.169-.339-1.513-3.644-2.07-4.988-.545-1.307-1.1-1.126-1.513-1.15-.387-.024-.835-.024-1.283-.024a2.488,2.488,0,0,0-1.792.835,7.546,7.546,0,0,0-2.349,5.605c0,3.305,2.409,6.5,2.736,6.949s4.734,7.228,11.477,10.145c4.261,1.84,5.932,2,8.063,1.683,1.3-.194,3.971-1.622,4.528-3.2a5.617,5.617,0,0,0,.387-3.2C40.472,35.252,40.024,35.083,39.358,34.756Z" transform="translate(0 -2.25)" fill="#fff"/>
</svg>
